<svg version="1.1" xmlns="http://www.w3.org/2000/svg" width="400px" height="200px" style="border: dashed 2px #aaa"><path fill="#0090f7" d="M51.2353515625,122.4833984375q0-0.134765625,0.08984375-0.95458984375t0.23583984375-1.9990234375t0.32568359375-2.5380859375t0.314453125-2.57177734375t0.23583984375-2.1337890625t0.10107421875-1.2353515625q-0.1796875-0.08984375-0.43798828125-0.25830078125t-0.25830078125-0.39306640625q0-0.314453125,0.30322265625-0.50537109375t0.52783203125-0.28076171875q0.08984375-1.1455078125,0.224609375-3.189453125t0.41552734375-4.41357421875t0.7861328125-4.806640625t1.33642578125-4.4248046875t1.9990234375-3.24560546875t2.875-1.2578125t2.830078125,1.078125t1.83056640625,2.8076171875t1.078125,3.8408203125t0.5615234375,4.2001953125t0.23583984375,3.908203125t0.08984375,2.919921875q0.044921875,0.6962890625,0.3369140625,0.93212890625t0.64013671875,0.32568359375t0.62890625,0.2021484375t0.28076171875,0.5615234375q0,0.5166015625-0.62890625,0.71875t-0.98828125,0.2470703125q0.224609375,2.8076171875,0.61767578125,5.525390625t1.04443359375,5.48046875q0.08984375,0.5166015625,0.2470703125,1.04443359375t0.1572265625,1.02197265625q0,0.359375-0.2470703125,0.59521484375t-0.64013671875,0.37060546875t-0.7861328125,0.1796875t-0.66259765625,0.044921875q-1.0107421875,0-1.70703125-0.3818359375t-0.9208984375-1.4599609375q-0.6064453125-2.8974609375-1.1904296875-6.0869140625q-0.494140625-2.7626953125-0.494140625-5.3681640625q0-0.404296875,0.0224609375-0.80859375q-1.88671875,0-3.7958984375,0.08984375t-3.6611328125,0.673828125q-0.044921875,0.6064453125-0.224609375,2.291015625t-0.404296875,3.6162109375t-0.46044921875,3.69482421875t-0.28076171875,2.50439453125q-0.044921875,0.314453125-0.46044921875,0.59521484375t-0.8984375,0.30322265625t-0.853515625-0.30322265625t-0.37060546875-1.15673828125z M55.435546875,108.8720703125q1.751953125-0.404296875,3.51513671875-0.4716796875t3.56005859375-0.1572265625q-0.08984375-0.5615234375-0.044921875-1.15673828125t0.044921875-1.20166015625q0-1.3251953125-0.0673828125-3.0771484375t-0.2021484375-3.548828125t-0.34814453125-3.53759765625t-0.48291015625-3.099609375t-0.57275390625-2.16748046875t-0.66259765625-0.80859375q-0.6962890625,0.044921875-1.31396484375,1.20166015625t-1.123046875,2.9423828125t-0.9208984375,3.998046875t-0.6962890625,4.32373046875t-0.46044921875,3.9306640625t-0.224609375,2.830078125z M72.947666015625,100.359375q0-0.314453125,0.673828125-0.5390625t1.52734375-0.37060546875t1.65087890625-0.21337890625t1.08935546875-0.1123046875q0-0.6064453125,0.044921875-1.22412109375t0.2470703125-1.1005859375t0.64013671875-0.77490234375t1.22412109375-0.2919921875q0.6513671875,0,0.98828125,0.1572265625t0.71875,0.6513671875q0.08984375,0.26953125,0.08984375,0.5166015625l0,0.75244140625t-0.044921875,0.77490234375q0.8310546875-0.08984375,1.65087890625-0.21337890625t1.65087890625-0.12353515625q0.6064453125,0,0.8310546875,0.0224609375t0.44921875,0.5390625q0.1796875,0.5166015625-0.43798828125,0.7861328125t-1.482421875,0.404296875t-1.71826171875,0.2021484375t-1.033203125,0.0673828125q-0.26953125,3.86328125-0.55029296875,7.6591796875t-0.28076171875,7.7041015625q0,1.751953125,0.1123046875,3.6162109375t0.62890625,3.5263671875q0.134765625,0.5166015625,0.44921875,0.9658203125t0.314453125,0.9658203125q0,0.314453125-0.2470703125,0.494140625t-0.59521484375,0.30322265625t-0.6962890625,0.14599609375t-0.57275390625,0.0224609375q-1.4150390625,0-2.15625-1.0556640625t-1.06689453125-2.52685546875t-0.34814453125-3.02099609375t-0.0224609375-2.515625q0-1.9765625,0.07861328125-4.04296875t0.19091796875-4.087890625t0.314453125-3.953125t0.4716796875-3.59375q-0.7861328125,0.08984375-1.53857421875,0.2021484375t-1.53857421875,0.1123046875q-0.1796875,0-0.48291015625-0.0224609375t-0.57275390625-0.1123046875t-0.46044921875-0.2470703125t-0.19091796875-0.44921875z M89.20197265625,100.359375q0-0.314453125,0.673828125-0.5390625t1.52734375-0.37060546875t1.65087890625-0.21337890625t1.08935546875-0.1123046875q0-0.6064453125,0.044921875-1.22412109375t0.2470703125-1.1005859375t0.64013671875-0.77490234375t1.22412109375-0.2919921875q0.6513671875,0,0.98828125,0.1572265625t0.71875,0.6513671875q0.08984375,0.26953125,0.08984375,0.5166015625l0,0.75244140625t-0.044921875,0.77490234375q0.8310546875-0.08984375,1.65087890625-0.21337890625t1.65087890625-0.12353515625q0.6064453125,0,0.8310546875,0.0224609375t0.44921875,0.5390625q0.1796875,0.5166015625-0.43798828125,0.7861328125t-1.482421875,0.404296875t-1.71826171875,0.2021484375t-1.033203125,0.0673828125q-0.26953125,3.86328125-0.55029296875,7.6591796875t-0.28076171875,7.7041015625q0,1.751953125,0.1123046875,3.6162109375t0.62890625,3.5263671875q0.134765625,0.5166015625,0.44921875,0.9658203125t0.314453125,0.9658203125q0,0.314453125-0.2470703125,0.494140625t-0.59521484375,0.30322265625t-0.6962890625,0.14599609375t-0.57275390625,0.0224609375q-1.4150390625,0-2.15625-1.0556640625t-1.06689453125-2.52685546875t-0.34814453125-3.02099609375t-0.0224609375-2.515625q0-1.9765625,0.07861328125-4.04296875t0.19091796875-4.087890625t0.314453125-3.953125t0.4716796875-3.59375q-0.7861328125,0.08984375-1.53857421875,0.2021484375t-1.53857421875,0.1123046875q-0.1796875,0-0.48291015625-0.0224609375t-0.57275390625-0.1123046875t-0.46044921875-0.2470703125t-0.19091796875-0.44921875z M106.37717773438,115.54296875q0-1.572265625,0.34814453125-3.7060546875t1.17919921875-4.04296875t2.18994140625-3.24560546875t3.42529296875-1.33642578125q1.931640625,0,2.8974609375,1.11181640625t0.9658203125,2.99853515625q0,1.2353515625-0.46044921875,2.70654296875t-1.31396484375,2.78515625t-2.021484375,2.18994140625t-2.60546875,0.8759765625l-0.583984375-0.044921875q0,0.6064453125,0.1796875,1.62841796875t0.52783203125,2.03271484375t0.8984375,1.7744140625t1.33642578125,0.763671875q1.1455078125,0,2.201171875-0.9208984375t1.9990234375-2.0439453125t1.751953125-2.0439453125t1.482421875-0.9208984375q0.359375,0,0.7412109375,0.1123046875t0.4267578125,0.62890625q0,0.314453125-0.16845703125,0.5166015625t-0.30322265625,0.44921875q-0.6962890625,1.1904296875-1.51611328125,2.2685546875t-1.85302734375,1.9541015625t-2.25732421875,1.38134765625t-2.70654296875,0.50537109375q-1.931640625,0-3.2119140625-0.68505859375t-2.06640625-1.841796875t-1.13427734375-2.6728515625t-0.34814453125-3.17822265625z M110.39768554688,113.8359375l0.62890625,0.5615234375q0.44921875,0.404296875,0.8984375,0.1796875t0.80859375-0.81982421875t0.66259765625-1.47119140625t0.5390625-1.796875t0.34814453125-1.796875t0.1123046875-1.4599609375l0-0.763671875t-0.0673828125-0.80859375t-0.23583984375-0.64013671875t-0.52783203125-0.32568359375q-0.1123046875-0.0224609375-0.2021484375-0.0224609375q-0.763671875,0-1.302734375,0.9658203125q-0.583984375,1.078125-0.943359375,2.61669921875t-0.5166015625,3.15576171875t-0.2021484375,2.42578125z M125.1695703125,114.734375l0-0.6513671875q0-0.80859375,0.044921875-1.52734375q0.044921875-1.0107421875,0.044921875-1.662109375q0-0.359375,0.044921875-0.81982421875t0.224609375-0.72998046875q0.224609375-0.224609375,0.52783203125-0.46044921875t0.66259765625-0.23583984375q1.1455078125,0,1.796875,0.25830078125t0.6962890625,1.06689453125l0.08984375,0.6962890625q0.404296875-0.9658203125,1.078125-2.39208984375t1.56103515625-2.7177734375t1.9990234375-2.201171875t2.34716796875-0.90966796875q1.1455078125,0,1.88671875,1.078125t1.17919921875,2.75146484375t0.61767578125,3.728515625t0.2470703125,4.03173828125t0.08984375,3.60498046875t0.1572265625,2.45947265625q0.08984375,0.6962890625,0.30322265625,1.47119140625t0.21337890625,1.42626953125q0,0.1796875-0.25830078125,0.34814453125t-0.55029296875,0.28076171875t-0.59521484375,0.1796875t-0.43798828125,0.0673828125q-0.8759765625,0-1.24658203125-1.31396484375t-0.46044921875-3.29052734375t-0.08984375-4.27880859375t-0.1572265625-4.27880859375t-0.64013671875-3.29052734375t-1.53857421875-1.35888671875q-0.9658203125,0-1.9990234375,1.24658203125t-1.7744140625,3.31298828125q-0.71875,2.06640625-0.98828125,4.6943359375q-0.08984375,0.8310546875-0.08984375,1.662109375q0,1.8193359375,0.3818359375,3.638671875q0.044921875,0.314453125-0.25830078125,0.4716796875t-0.75244140625,0.2470703125t-0.90966796875,0.1123046875t-0.70751953125,0.0224609375q-0.8759765625,0-1.40380859375-0.61767578125t-0.81982421875-1.58349609375t-0.39306640625-2.16748046875t-0.12353515625-2.36962890625z M145.57915039062,114.3525390625q0-1.751953125,0.37060546875-3.17822265625t1.17919921875-2.41455078125t2.12255859375-1.53857421875t3.20068359375-0.55029296875q1.0556640625,0,2.15625,0.28076171875t1.88671875,1.04443359375q0-0.44921875,0.08984375-1.85302734375t0.224609375-3.26806640625t0.28076171875-3.908203125t0.25830078125-3.7958984375t0.2021484375-2.9423828125t0.134765625-1.34765625q0.224609375-0.6513671875,0.8310546875-0.77490234375t1.1455078125-0.12353515625q1.4150390625,0,1.74072265625,0.44921875t0.32568359375,1.796875q0,4.9189453125-0.43798828125,9.79296875t-0.43798828125,9.79296875q0,3.1669921875,0.12353515625,6.36767578125t0.88720703125,6.30029296875l0.2470703125,0.224609375l0.134765625,0.404296875l-0.3369140625,0.5166015625q-0.853515625,0.5390625-1.9765625,0.5390625l-0.08984375,0q-1.1455078125,0-2.111328125-0.5390625q-0.359375-0.224609375-0.59521484375-1.33642578125t-0.37060546875-2.4482421875t-0.2021484375-2.57177734375t-0.1123046875-1.751953125q-0.7861328125,1.796875-2.14501953125,3.08837890625t-3.42529296875,1.29150390625q-1.6171875,0-2.650390625-0.6962890625t-1.60595703125-1.7744140625t-0.80859375-2.41455078125t-0.23583984375-2.66162109375z M148.29692382812,114.4873046875q0,0.5166015625,0.12353515625,1.52734375t0.39306640625,2.021484375t0.75244140625,1.796875t1.26904296875,0.7861328125q1.0556640625-0.5166015625,1.9091796875-1.71826171875t1.47119140625-2.650390625t0.9658203125-2.8974609375t0.34814453125-2.50439453125q0-1.3251953125-0.9658203125-2.201171875t-2.3134765625-0.8759765625q-0.404296875,0-0.81982421875,0.1572265625t-0.77490234375,0.359375q-0.8310546875,0.7861328125-1.29150390625,1.42626953125t-0.6962890625,1.3251953125t-0.30322265625,1.51611328125t-0.0673828125,1.931640625z M166.84224609375,114.0830078125q0-2.06640625,0.48291015625-4.05419921875t0.81982421875-3.96435546875q0.08984375-0.5166015625,0.70751953125-0.64013671875t1.04443359375-0.12353515625q0.7412109375,0,1.1904296875,0.224609375q0.1796875,0.08984375,0.3369140625,0.2021484375t0.1572265625,0.2919921875q0,1.931640625-0.46044921875,3.7734375t-0.46044921875,3.908203125q0,0.6962890625,0.10107421875,1.31396484375t0.19091796875,1.22412109375l0.134765625,0.6513671875q0,0.1796875,0.0224609375,0.314453125t0.0673828125,0.314453125q0,0.404296875-0.57275390625,0.55029296875t-0.99951171875,0.14599609375q-0.6513671875,0-1.20166015625-0.25830078125t-0.86474609375-0.88720703125l-0.314453125-0.6513671875q-0.26953125-0.5166015625-0.26953125-1.15673828125t-0.1123046875-1.17919921875z M168.27974609375,100.5615234375l0-0.4267578125q0-1.0556640625,0.52783203125-1.88671875t1.58349609375-0.8310546875q0.134765625,0,0.25830078125,0.0224609375t0.25830078125,0.0224609375q0.26953125,0.044921875,0.70751953125,0.21337890625t0.43798828125,0.52783203125l0,0.044921875q-0.08984375,0.1796875-0.1123046875,0.37060546875t-0.1123046875,0.32568359375l0.044921875-0.044921875q-0.26953125,0.6962890625-0.43798828125,1.123046875t-0.37060546875,0.68505859375t-0.50537109375,0.37060546875t-0.86474609375,0.1123046875q-0.08984375,0-0.314453125-0.0224609375t-0.48291015625-0.08984375t-0.43798828125-0.1796875t-0.1796875-0.3369140625z M176.65026367188,105.2333984375q0-0.224609375,0.34814453125-0.3818359375t0.8310546875-0.224609375t0.9208984375-0.1123046875t0.66259765625-0.044921875q0.08984375-0.6064453125,0.25830078125-1.6396484375t0.41552734375-2.21240234375t0.61767578125-2.36962890625t0.8984375-2.15625t1.24658203125-1.58349609375t1.6845703125-0.61767578125l-0.044921875,0q0.314453125-0.044921875,0.61767578125-0.0673828125t0.61767578125-0.0224609375q0.7412109375,0,1.60595703125,0.2919921875t1.60595703125,0.81982421875t1.24658203125,1.26904296875t0.50537109375,1.572265625q0,0.6513671875-0.32568359375,1.40380859375t-1.13427734375,0.75244140625q-0.26953125,0-0.55029296875-0.134765625t-0.52783203125-0.2919921875q0.08984375-0.5166015625,0.08984375-1.033203125q0-0.26953125-0.0224609375-0.5166015625q-0.0673828125-0.7861328125-0.3369140625-1.38134765625t-0.77490234375-0.943359375t-1.20166015625-0.25830078125q-0.9208984375,0.134765625-1.38134765625,1.123046875t-0.64013671875,2.34716796875t-0.224609375,2.7626953125t-0.1796875,2.27978515625q1.0556640625,0.08984375,1.78564453125,0.08984375l1.83056640625,0q0.1796875,0,0.61767578125,0.0224609375t0.853515625,0.08984375t0.7412109375,0.23583984375t0.32568359375,0.43798828125q0,0.224609375-0.1796875,0.39306640625t-0.43798828125,0.23583984375t-0.5390625,0.08984375t-0.46044921875,0.0224609375q-0.7861328125,0-1.33642578125-0.0673828125t-1.0556640625-0.12353515625t-1.0556640625-0.05615234375t-1.29150390625,0.1572265625q-0.224609375,2.4931640625-0.359375,4.94140625t-0.134765625,4.94140625q0,3.908203125,0.2470703125,7.6591796875t0.8984375,7.6142578125q0.08984375,0.359375,0.1572265625,0.81982421875t0.0673828125,0.88720703125q0,0.404296875-0.2470703125,0.66259765625t-0.61767578125,0.37060546875t-0.763671875,0.1572265625t-0.70751953125,0.044921875q-1.2802734375,0-1.796875-0.39306640625t-0.7412109375-1.58349609375q-0.5615234375-3.1669921875-0.71875-6.39013671875t-0.1572265625-6.50244140625q0-3.2119140625,0.23583984375-6.41259765625t0.59521484375-6.36767578125q-0.1796875,0-0.61767578125,0.0224609375t-0.8759765625,0t-0.763671875-0.1572265625t-0.32568359375-0.4716796875z M193.2190234375,109.61328125q0-0.6513671875,0.37060546875-0.853515625t0.93212890625-0.2021484375q0.9208984375,0,1.40380859375,0.34814453125t0.48291015625,1.22412109375q0,1.0556640625,0.1572265625,2.63916015625t0.46044921875,3.0771484375t0.71875,2.57177734375t0.86474609375,1.078125q0.8310546875,0,1.47119140625-1.2802734375t1.123046875-3.14453125t0.8310546875-4.00927734375t0.48291015625-3.82958984375q0.08984375-0.9208984375,0.43798828125-1.33642578125t1.26904296875-0.41552734375q1.0556640625,0,1.53857421875,0.8759765625t0.61767578125,2.15625q0.1123046875,1.1005859375,0.1123046875,2.291015625l0,0.3818359375l0,0.8984375q0,0.853515625,0.0224609375,1.52734375l0.6513671875,13.7685546875l0.08984375,2.291015625q0.044921875,0.314453125,0.0673828125,0.59521484375t0.0224609375,0.59521484375q0,1.2802734375-0.55029296875,1.65087890625t-1.78564453125,0.37060546875q-0.26953125,0-0.68505859375-0.044921875t-0.80859375-0.1796875t-0.673828125-0.37060546875t-0.28076171875-0.59521484375l0.08984375-0.224609375q0.1123046875-1.34765625,0.1123046875-2.830078125l0-0.4716796875q-0.0224609375-1.751953125-0.1123046875-3.548828125t-0.2021484375-3.59375t-0.1123046875-3.458984375q-0.314453125,0.6962890625-0.72998046875,1.4375t-0.9658203125,1.33642578125t-1.24658203125,0.98828125t-1.572265625,0.39306640625q-1.2802734375,0-2.111328125-0.673828125t-1.29150390625-1.751953125t-0.66259765625-2.41455078125t-0.26953125-2.6728515625t-0.08984375-2.54931640625t-0.1796875-2.0439453125z"/><path fill="#" d=""/></svg>
